<?xml version="1.0" encoding="utf-8"?>
<!-- Generator: Adobe Illustrator 17.0.2, SVG Export Plug-In . SVG Version: 6.00 Build 0)  -->
<!DOCTYPE svg PUBLIC "-//W3C//DTD SVG 1.1//EN" "http://www.w3.org/Graphics/SVG/1.1/DTD/svg11.dtd">
<svg version="1.1" id="Layer_2" xmlns="http://www.w3.org/2000/svg" xmlns:xlink="http://www.w3.org/1999/xlink" x="0px" y="0px"
	 width="664.25px" height="200.5px" viewBox="0 0 664.25 200.5" enable-background="new 0 0 664.25 200.5" xml:space="preserve">
<g>
	<g>
		<g>
			<g>
				<g>
					<linearGradient id="SVGID_1_" gradientUnits="userSpaceOnUse" x1="100.2602" y1="1.6467" x2="100.2602" y2="199.962">
						<stop  offset="0" style="stop-color:#84BD00"/>
						<stop  offset="1" style="stop-color:#7DAE00"/>
					</linearGradient>
					<path fill="url(#SVGID_1_)" d="M100.26,0.947c-54.848,0-99.312,44.463-99.312,99.31c0,54.853,44.464,99.314,99.312,99.314
						c54.85,0,99.312-44.461,99.312-99.314C199.572,45.41,155.11,0.947,100.26,0.947z"/>
				</g>
				<g opacity="0.4">
					
						<radialGradient id="SVGID_2_" cx="100.2602" cy="100.2593" r="135.7506" fx="100.444" fy="34.4568" gradientUnits="userSpaceOnUse">
						<stop  offset="0.0919" style="stop-color:#FFFFFF"/>
						<stop  offset="0.8336" style="stop-color:#FFFFFF;stop-opacity:0"/>
					</radialGradient>
					<path fill="url(#SVGID_2_)" d="M100.26,0.947c-54.848,0-99.312,44.463-99.312,99.31c0,54.853,44.464,99.314,99.312,99.314
						c54.85,0,99.312-44.461,99.312-99.314C199.572,45.41,155.11,0.947,100.26,0.947z"/>
				</g>
				<g opacity="0.2">
					<g>
						<path d="M43.847,93.309c36.07-10.945,80.91-5.644,111.563,13.194c2.22,1.37,3.497,3.674,3.658,6.091
							c0.047-2.646-1.239-5.256-3.658-6.745c-30.654-18.838-75.494-24.14-111.563-13.193c-3.586,1.089-5.799,4.545-5.458,8.141
							C38.359,97.445,40.481,94.333,43.847,93.309z"/>
						<path d="M47.295,124.608c37.83-8.648,70.281-4.927,96.458,11.069c1.769,1.079,2.79,2.909,2.933,4.831
							c0.068-2.155-0.962-4.282-2.933-5.485c-26.177-15.996-58.627-19.719-96.458-11.07c-3.004,0.685-4.97,3.441-4.782,6.415
							C42.635,127.653,44.514,125.239,47.295,124.608z"/>
						<path d="M38.237,59.729c35.081-10.649,93.397-8.592,130.25,13.285c2.719,1.612,4.299,4.395,4.513,7.324
							c-0.006-3.162-1.593-6.246-4.513-7.979c-36.854-21.877-95.17-23.933-130.25-13.285c-4.305,1.309-6.96,5.453-6.549,9.762
							C31.592,64.771,34.153,60.969,38.237,59.729z"/>
					</g>
				</g>
				<g>
					<path d="M155.411,106.503C124.757,87.665,79.917,82.364,43.847,93.309c-4.087,1.245-6.397,5.562-5.163,9.657
						c1.244,4.087,5.568,6.396,9.663,5.158c31.575-9.584,72.272-4.832,98.96,11.573c3.64,2.237,8.405,1.095,10.65-2.55
						C160.196,113.512,159.05,108.744,155.411,106.503z"/>
					<path d="M168.488,73.013c-36.854-21.876-95.17-23.934-130.25-13.285c-4.911,1.492-7.679,6.678-6.191,11.588
						c1.487,4.907,6.676,7.678,11.584,6.189c30.56-9.275,83.364-7.527,115.376,11.484c4.403,2.621,10.108,1.165,12.727-3.248
						C174.35,81.334,172.902,75.633,168.488,73.013z"/>
					<path d="M143.752,135.678c-26.177-15.996-58.627-19.718-96.458-11.069c-3.339,0.76-5.418,4.08-4.655,7.411
						c0.76,3.33,4.08,5.418,7.411,4.654c34.569-7.896,63.923-4.678,87.244,9.576c2.915,1.783,6.727,0.866,8.511-2.06
						C147.59,141.273,146.671,137.46,143.752,135.678z"/>
				</g>
			</g>
		</g>
	</g>
	<g>
		<g>
			<path fill="#FFFFFF" d="M271.142,92.629c-17.147-4.089-20.2-6.96-20.2-12.989c0-5.698,5.364-9.531,13.341-9.531
				c7.732,0,15.398,2.912,23.438,8.905c0.243,0.181,0.548,0.254,0.848,0.207c0.3-0.045,0.565-0.21,0.741-0.458l8.373-11.802
				c0.344-0.486,0.25-1.156-0.214-1.527c-9.566-7.677-20.34-11.409-32.932-11.409c-18.515,0-31.446,11.11-31.446,27.008
				c0,17.048,11.155,23.083,30.434,27.743c16.408,3.779,19.178,6.945,19.178,12.606c0,6.272-5.6,10.172-14.611,10.172
				c-10.009,0-18.173-3.372-27.306-11.28c-0.227-0.195-0.537-0.285-0.824-0.269c-0.302,0.025-0.578,0.165-0.771,0.396l-9.388,11.172
				c-0.394,0.464-0.344,1.156,0.111,1.558c10.626,9.486,23.694,14.497,37.797,14.497c19.951,0,32.843-10.901,32.843-27.773
				C300.553,105.596,292.033,97.71,271.142,92.629z"/>
			<path fill="#FFFFFF" d="M345.689,75.718c-8.647,0-15.74,3.406-21.59,10.385v-7.855c0-0.62-0.503-1.125-1.122-1.125h-15.353
				c-0.62,0-1.122,0.505-1.122,1.125v87.286c0,0.62,0.502,1.125,1.122,1.125h15.353c0.619,0,1.122-0.505,1.122-1.125v-27.552
				c5.851,6.566,12.944,9.773,21.59,9.773c16.068,0,32.334-12.369,32.334-36.014C378.023,88.09,361.758,75.718,345.689,75.718z
				 M360.172,111.74c0,12.04-7.417,20.442-18.036,20.442c-10.499,0-18.419-8.784-18.419-20.442c0-11.657,7.92-20.442,18.419-20.442
				C352.584,91.298,360.172,99.893,360.172,111.74z"/>
			<path fill="#FFFFFF" d="M419.718,75.718c-20.693,0-36.904,15.934-36.904,36.279c0,20.124,16.1,35.891,36.65,35.891
				c20.767,0,37.027-15.881,37.027-36.147C456.491,91.54,440.342,75.718,419.718,75.718z M419.718,132.309
				c-11.007,0-19.305-8.844-19.305-20.568c0-11.774,8.011-20.319,19.051-20.319c11.077,0,19.432,8.843,19.432,20.576
				C438.895,123.77,430.83,132.309,419.718,132.309z"/>
			<path fill="#FFFFFF" d="M500.681,77.123h-16.896V59.848c0-0.62-0.501-1.125-1.121-1.125h-15.352
				c-0.621,0-1.126,0.505-1.126,1.125v17.274h-7.383c-0.618,0-1.118,0.505-1.118,1.125v13.195c0,0.62,0.5,1.125,1.118,1.125h7.383
				v34.144c0,13.798,6.867,20.794,20.412,20.794c5.507,0,10.076-1.137,14.383-3.579c0.35-0.195,0.567-0.572,0.567-0.974v-12.565
				c0-0.388-0.202-0.754-0.533-0.957c-0.335-0.21-0.751-0.221-1.094-0.051c-2.958,1.488-5.817,2.175-9.013,2.175
				c-4.926,0-7.124-2.236-7.124-7.249V92.568h16.896c0.62,0,1.12-0.505,1.12-1.125V78.248
				C501.801,77.628,501.301,77.123,500.681,77.123z"/>
			<path fill="#FFFFFF" d="M559.546,77.189v-2.122c0-6.242,2.393-9.025,7.761-9.025c3.2,0,5.771,0.636,8.651,1.597
				c0.354,0.111,0.725,0.056,1.013-0.156c0.296-0.212,0.464-0.553,0.464-0.913V53.632c0-0.494-0.318-0.933-0.794-1.078
				c-3.042-0.905-6.934-1.834-12.762-1.834c-14.182,0-21.677,7.986-21.677,23.086v3.25h-7.376c-0.619,0-1.127,0.505-1.127,1.124
				v13.263c0,0.62,0.508,1.125,1.127,1.125h7.376v52.665c0,0.62,0.5,1.125,1.119,1.125h15.354c0.62,0,1.125-0.505,1.125-1.125
				V92.568h14.335l21.96,52.652c-2.493,5.532-4.944,6.633-8.291,6.633c-2.705,0-5.554-0.808-8.466-2.401
				c-0.274-0.15-0.599-0.176-0.895-0.084c-0.293,0.104-0.54,0.321-0.664,0.606l-5.204,11.417c-0.248,0.539-0.036,1.173,0.483,1.452
				c5.433,2.942,10.337,4.198,16.397,4.198c11.337,0,17.604-5.281,23.128-19.488l26.637-68.831c0.134-0.346,0.094-0.737-0.118-1.045
				c-0.211-0.304-0.552-0.488-0.924-0.488h-15.983c-0.478,0-0.907,0.304-1.063,0.754l-16.374,46.77l-17.935-46.8
				c-0.164-0.436-0.583-0.723-1.049-0.723H559.546z"/>
			<path fill="#FFFFFF" d="M525.42,77.123h-15.353c-0.62,0-1.125,0.505-1.125,1.125v66.986c0,0.62,0.505,1.125,1.125,1.125h15.353
				c0.619,0,1.125-0.505,1.125-1.125V78.248C526.545,77.628,526.039,77.123,525.42,77.123z"/>
			<path fill="#FFFFFF" d="M517.821,46.622c-6.082,0-11.019,4.924-11.019,11.007c0,6.086,4.937,11.016,11.019,11.016
				c6.08,0,11.011-4.93,11.011-11.016C528.832,51.546,523.901,46.622,517.821,46.622z"/>
		</g>
		<g>
			<path fill="#FFFFFF" d="M652.329,98.659c-6.076,0-10.805-4.88-10.805-10.806c0-5.926,4.79-10.862,10.861-10.862
				c6.076,0,10.805,4.879,10.805,10.8C663.19,93.718,658.404,98.659,652.329,98.659z M652.386,78.066
				c-5.534,0-9.723,4.399-9.723,9.787c0,5.385,4.158,9.726,9.666,9.726c5.533,0,9.726-4.396,9.726-9.787
				C662.055,82.407,657.894,78.066,652.386,78.066z M654.781,88.903l3.057,4.279h-2.577l-2.751-3.925h-2.365v3.925h-2.157V81.84
				h5.058c2.635,0,4.368,1.348,4.368,3.618C657.413,87.317,656.339,88.453,654.781,88.903z M652.958,83.786h-2.814v3.587h2.814
				c1.404,0,2.242-0.687,2.242-1.795C655.2,84.411,654.362,83.786,652.958,83.786z"/>
		</g>
	</g>
</g>
</svg>
